<?xml version="1.0" encoding="utf-8" ?>
<svg xmlns="http://www.w3.org/2000/svg" xmlns:xlink="http://www.w3.org/1999/xlink" width="32" height="32">
	<path fill="#D2D1B0" transform="scale(0.03125 0.03125)" d="M897.158 332.492C902.542 336.353 906.277 343.396 909.644 349.003C926.08 376.375 938.867 407.711 944.082 439.31C946.763 455.554 946.373 470.821 945.117 487.196C944.315 497.646 942.775 508.691 944.15 519.118C945.7 530.879 950.412 542.167 953.9 553.455C957.248 564.287 959.859 575.698 962.108 586.813C975.312 652.05 958.344 724.037 919.707 777.867C854.806 868.289 744.997 916.92 637.932 934.454Q632.981 935.267 628.016 935.984Q623.051 936.701 618.072 937.322Q613.094 937.943 608.105 938.467Q603.116 938.992 598.117 939.42Q593.119 939.849 588.113 940.18Q583.107 940.512 578.095 940.747Q573.084 940.982 568.069 941.12Q563.054 941.258 558.038 941.299Q553.021 941.34 548.004 941.284Q542.988 941.229 537.973 941.076Q532.959 940.923 527.948 940.674Q522.938 940.424 517.933 940.078Q512.928 939.732 507.93 939.289Q502.933 938.846 497.945 938.307Q492.958 937.768 487.981 937.133Q483.005 936.497 478.042 935.766Q473.078 935.034 468.13 934.207Q463.182 933.38 458.251 932.457Q453.319 931.535 448.407 930.517Q443.494 929.5 438.602 928.387Q433.71 927.275 428.841 926.068Q423.971 924.862 419.126 923.561Q414.28 922.261 409.461 920.867Q404.642 919.473 399.85 917.987Q395.059 916.5 390.297 914.921Q385.535 913.342 380.804 911.672Q376.074 910.001 371.376 908.24Q366.679 906.478 362.017 904.626Q357.354 902.774 352.728 900.832Q348.102 898.891 343.515 896.86Q338.927 894.829 334.38 892.71Q329.833 890.591 325.327 888.385C302.901 877.367 280.813 864.776 260.525 850.159C244.609 838.692 175.23 778.671 172.131 762.078C191.868 779.725 207.313 792.962 229.334 807.762C236.231 812.398 242.933 817.318 250.884 819.967C256.094 816.741 260.866 811.585 265.541 807.558Q276.452 798.186 287.999 789.611Q288.136 802.34 287.648 815.061C287.393 821.223 286.662 827.751 287.066 833.89C287.202 835.943 287.494 839.044 288.971 840.641C293.78 845.841 309.939 850.651 316.984 853.05C378.163 873.883 449.676 885.471 514.408 884.362C612.362 882.685 711.352 859.68 794.623 806.705C816.534 792.766 836.864 777.598 854.926 758.844C885.978 726.6 914.335 682.936 919.453 637.547C920.703 626.461 920.347 615.333 920.339 604.202L920.342 559.019Q920.635 497.94 919.551 436.869C920.262 435.675 921.021 434.452 921.503 433.144C923.587 427.486 922.298 419.785 921.622 413.89C918.133 383.437 909.485 360.292 897.158 332.492Z"/>
	<path fill="#35454B" transform="scale(0.03125 0.03125)" d="M172.131 762.078C169.326 757.666 164.916 753.631 161.353 749.791Q155.093 743.165 149.488 735.976C126.902 707.414 110.519 671.339 105.169 635.242C102.614 618.008 103.017 600.653 103.043 583.284L103.082 527.232L103.039 452.133C103.028 436.851 102.503 421.426 103.794 406.186C107.131 366.784 123.037 329.705 146.499 298.122C207.538 215.958 315.514 165.374 414.804 150.771C428.155 148.807 510.078 138.909 518.556 146.785C523.241 151.139 521.532 164.725 521.176 170.489C528.637 170.836 536.031 171.031 543.503 170.998C543.376 166.156 542.968 161.005 543.551 156.2C543.899 153.322 544.675 150.171 547.168 148.399C553.339 144.016 608.242 153.239 619.916 155.3C712.766 171.69 805.378 214.387 866.876 287.559Q877.657 300.455 886.44 314.786C889.92 320.469 892.933 326.547 896.787 331.979L897.158 332.492C909.485 360.292 918.133 383.437 921.622 413.89C922.298 419.785 923.587 427.486 921.503 433.144C921.021 434.452 920.262 435.675 919.551 436.869Q920.635 497.94 920.342 559.019L920.339 604.202C920.347 615.333 920.703 626.461 919.453 637.547C914.335 682.936 885.978 726.6 854.926 758.844C836.864 777.598 816.534 792.766 794.623 806.705C711.352 859.68 612.362 882.685 514.408 884.362C449.676 885.471 378.163 873.883 316.984 853.05C309.939 850.651 293.78 845.841 288.971 840.641C287.494 839.044 287.202 835.943 287.066 833.89C286.662 827.751 287.393 821.223 287.648 815.061Q288.136 802.34 287.999 789.611Q276.452 798.186 265.541 807.558C260.866 811.585 256.094 816.741 250.884 819.967C242.933 817.318 236.231 812.398 229.334 807.762C207.313 792.962 191.868 779.725 172.131 762.078Z"/>
	<path fill="#FEF4F4" transform="scale(0.03125 0.03125)" d="M555.648 158.793L565.166 159.712L565.006 365.795L555.485 364.324L555.648 158.793Z"/>
	<path fill="#FEF4F4" transform="scale(0.03125 0.03125)" d="M551.611 438.199C556.175 439.217 560.7 440.003 565.325 440.677C564.765 442.465 562.941 443.802 561.621 445.065L390.437 605.995L333.226 658.709C327.578 663.962 322.389 669.833 316.594 674.888L304.298 670.527C314.357 660.011 325.263 650.38 335.935 640.503L372.337 606.288L479.087 505.335C503.167 482.881 527.914 461.046 551.611 438.199Z"/>
	<path fill="#71C35A" transform="scale(0.03125 0.03125)" d="M521.725 182.991C528.805 182.978 535.925 183.418 543.002 183.692L542.992 428.489C540.054 432.564 536.408 436.195 532.921 439.8Q527.398 444.955 522.02 450.261L521.725 182.991Z"/>
	<path fill="#71C35A" transform="scale(0.03125 0.03125)" d="M507.979 419.896C508.067 419.981 508.172 420.052 508.243 420.152C510.116 422.76 508.946 455.703 508.895 460.766C492.345 477.345 474.704 492.952 457.696 509.071L335.032 624.877L308.342 650.043C302.239 655.69 292.415 662.458 288.155 669.294C286.831 682.785 287.441 696.554 287.456 710.101L287.508 774.981C276.993 781.816 267.669 790.66 258.267 798.916C256.813 791.255 257.396 782.89 257.458 775.112L257.739 742.344C257.975 711.687 257.47 681.036 257.833 650.379C270.187 637.932 283.595 626.474 296.651 614.771Q316.893 596.469 336.87 577.878L507.979 419.896Z"/>
	<path fill="#71C35A" transform="scale(0.03125 0.03125)" d="M836.253 485.261C856.647 488.511 877.121 491.296 897.483 494.73C894.247 504.334 890.778 513.685 886.266 522.773C856.548 582.623 799.587 626.704 740.842 655.895C672.018 690.093 601.699 702.555 525.51 705.195C515.136 705.554 504.857 705.239 494.487 705.064C488.454 704.962 481.626 705.399 475.707 704.22C476.871 703.397 477.851 703.2 479.259 702.999C486.213 702.006 493.401 701.928 500.407 701.305Q516.435 699.809 532.345 697.351Q540.484 696.183 548.577 694.732Q556.671 693.281 564.709 691.549Q572.747 689.818 580.719 687.806Q588.692 685.795 596.59 683.508Q604.488 681.22 612.301 678.659Q620.114 676.097 627.834 673.265Q635.553 670.433 643.169 667.333Q650.785 664.234 658.288 660.871C679.014 651.669 698.578 640.47 717.522 628.055C761.092 599.5 799.195 564.989 823.421 518.198C828.823 507.763 832.04 496.208 836.253 485.261Z"/>
	<path fill="#F13B40" transform="scale(0.03125 0.03125)" d="M577.903 161.547C591.627 161.81 606.1 165.101 619.604 167.496C701.403 182.004 785.151 217.835 843.379 278.411C871.4 307.562 891.647 341.682 902.741 380.614C906.715 394.562 909.539 408.75 910.108 423.273Q876.436 417.219 842.659 411.775Q840.742 401.713 838.202 391.789C814.636 300.457 735.149 226.481 651.275 188.66C636.564 182.026 621.194 176.036 605.917 170.795C597.539 167.921 585.617 166.235 578.331 161.817C578.187 161.73 578.046 161.637 577.903 161.547Z"/>
	<path fill="#71C35A" transform="scale(0.03125 0.03125)" d="M555.728 376.867C569.72 380.103 585.649 381.84 599.94 384.142L687.341 398.226L908.599 435.191C907.46 449.474 905.818 463.1 902.85 477.124L901.559 483.81C872.815 478.444 843.821 473.965 814.978 469.154L658.366 443.125L596.175 432.832C582.804 430.648 569.18 428.925 556.012 425.734Q555.198 401.304 555.728 376.867Z"/>
	<path fill="#FEF4F4" transform="scale(0.03125 0.03125)" d="M115.13 498.394C115.844 499.015 116.311 499.801 116.703 500.658C121.763 511.716 124.932 522.029 130.939 533.139C155.967 579.43 200.715 621.194 245.518 648.05L245.483 741.464C245.524 762.075 245.831 782.776 245.204 803.377C241.433 803.283 235.215 797.65 232.05 795.391C212.5 781.438 194.053 767.23 177.236 749.969C146.106 718.019 121.64 674.62 116.612 629.84C114.454 610.628 115.49 591.176 115.463 571.88C115.43 547.39 114.798 522.885 115.13 498.394Z"/>
	<path fill="#FEF4F4" transform="scale(0.03125 0.03125)" d="M247.843 635.303C242.254 632.88 237.1 628.791 232.174 625.241C215.262 613.057 199.676 599.926 185.145 584.951C142.045 540.534 114.6 485.47 115.595 422.693C116.582 360.487 146.338 309.977 190.192 267.665C268.871 191.751 393.847 154.083 501.602 156.088C501.348 156.24 501.098 156.398 500.839 156.542C494.697 159.973 471.494 162.079 462.71 164.038Q442.372 168.606 422.519 174.961Q409.388 179.184 396.517 184.145Q383.647 189.107 371.08 194.793Q358.512 200.478 346.288 206.868Q334.064 213.258 322.223 220.333C255.032 260.028 197.022 314.87 172.514 390.894Q171.674 393.507 170.898 396.14Q170.123 398.773 169.413 401.424Q168.702 404.076 168.057 406.743Q167.412 409.411 166.833 412.094Q166.254 414.777 165.741 417.474Q165.228 420.17 164.782 422.879Q164.335 425.587 163.956 428.305Q163.576 431.024 163.263 433.751Q162.951 436.478 162.705 439.212Q162.46 441.945 162.282 444.684Q162.104 447.423 161.993 450.166Q161.883 452.909 161.84 455.653Q161.796 458.397 161.821 461.142Q161.845 463.887 161.938 466.63Q162.03 469.373 162.189 472.114Q162.349 474.854 162.576 477.589Q162.802 480.325 163.097 483.054Q163.391 485.783 163.752 488.504Q164.113 491.224 164.541 493.936Q164.969 496.647 165.464 499.347Q165.959 502.047 166.52 504.734Q167.081 507.42 167.708 510.093Q168.335 512.765 169.027 515.421Q169.72 518.077 170.477 520.715Q171.235 523.353 172.057 525.972Q172.88 528.591 173.766 531.188Q174.653 533.786 175.603 536.361Q176.553 538.936 177.566 541.487Q178.58 544.038 179.655 546.563Q180.731 549.089 181.869 551.587Q183.006 554.084 184.205 556.554Q185.404 559.023 186.663 561.462C196.363 580.337 209.457 597.928 224.01 613.33C227.896 617.442 231.806 621.624 236.171 625.236C239.431 627.933 242.989 630.288 246.221 633.009C247.023 633.685 247.534 634.29 247.843 635.303Z"/>
	<path fill="#F97E7E" transform="scale(0.03125 0.03125)" d="M565.166 159.712C569.408 160.284 573.699 160.747 577.903 161.547C578.046 161.637 578.187 161.73 578.331 161.817C585.617 166.235 597.539 167.921 605.917 170.795C621.194 176.036 636.564 182.026 651.275 188.66C735.149 226.481 814.636 300.457 838.202 391.789Q840.742 401.713 842.659 411.775C750.439 394.68 657.353 382.175 565.006 365.795L565.166 159.712Z"/>
	<path fill="#6DD49E" transform="scale(0.03125 0.03125)" d="M565.325 440.677L741.881 469.517L802.427 479.489C813.689 481.353 825.089 482.885 836.253 485.261C832.04 496.208 828.823 507.763 823.421 518.198C799.195 564.989 761.092 599.5 717.522 628.055C698.578 640.47 679.014 651.669 658.288 660.871Q650.785 664.234 643.169 667.333Q635.553 670.433 627.834 673.265Q620.114 676.097 612.301 678.659Q604.488 681.22 596.59 683.508Q588.692 685.795 580.719 687.806Q572.747 689.817 564.709 691.549Q556.671 693.281 548.577 694.732Q540.484 696.183 532.345 697.351Q516.435 699.809 500.407 701.305C493.401 701.928 486.213 702.006 479.259 702.999C477.851 703.2 476.871 703.397 475.707 704.22Q461.407 703.564 447.156 702.223Q432.904 700.881 418.734 698.857Q404.563 696.833 390.506 694.131Q376.448 691.429 362.537 688.055C347.087 684.203 331.958 679.068 316.594 674.888C322.389 669.833 327.578 663.962 333.226 658.709L390.437 605.995L561.621 445.065C562.941 443.802 564.765 442.465 565.325 440.677Z"/>
	<path fill="#FEF4F4" transform="scale(0.03125 0.03125)" d="M907.592 501.817C908.312 503.892 908.43 506.052 908.497 508.227C908.993 524.272 908.224 540.5 908.224 556.566C908.224 577.787 908.859 599.128 908.325 620.331Q908.126 629.036 907.108 637.684C905.404 651.057 901.439 664.233 896.163 676.623C864.112 751.892 794.009 802.146 720.107 831.89Q715.366 833.753 710.592 835.533Q705.819 837.312 701.015 839.008Q696.211 840.703 691.378 842.313Q686.545 843.923 681.684 845.448Q676.823 846.973 671.936 848.412Q667.049 849.85 662.138 851.203Q657.226 852.556 652.292 853.821Q647.357 855.087 642.401 856.266Q637.445 857.444 632.469 858.535Q627.493 859.626 622.498 860.629Q617.504 861.633 612.492 862.548Q607.481 863.463 602.454 864.289Q597.427 865.116 592.387 865.854Q587.346 866.591 582.293 867.24Q577.24 867.889 572.177 868.449Q567.113 869.008 562.041 869.479Q556.968 869.949 551.888 870.33Q546.808 870.711 541.722 871.002Q536.636 871.294 531.546 871.495Q526.456 871.697 521.363 871.809Q516.27 871.921 511.175 871.943Q506.081 871.965 500.987 871.897Q495.893 871.83 490.801 871.673Q485.709 871.515 480.621 871.268Q475.533 871.021 470.45 870.684Q465.367 870.347 460.29 869.921Q455.214 869.495 450.145 868.979Q445.077 868.463 440.019 867.858Q434.961 867.253 429.914 866.559Q424.867 865.865 419.833 865.082Q414.8 864.3 409.78 863.428Q404.761 862.557 399.758 861.597C366.121 855.376 333.737 846.987 302.222 833.544C301.298 833.153 300.716 832.657 299.972 831.991C298.307 827.926 299.681 696.437 299.84 681.569C309.955 684.48 319.931 688.301 329.978 691.503Q349.99 697.74 370.462 702.245C487.951 728.09 623.913 723.507 734.202 672.817C795.445 644.669 854.304 601.788 888.768 542.705C896.402 529.616 902.335 516.001 907.592 501.817Z"/>
	<path fill="#FEDE62" transform="scale(0.03125 0.03125)" d="M501.602 156.088C504.068 156.065 506.551 155.981 509.014 156.09L509.121 315.636C509.168 344.657 509.822 373.672 509.21 402.69L252.474 638.269L247.843 635.303C247.534 634.29 247.023 633.685 246.221 633.009C242.989 630.288 239.431 627.933 236.171 625.236C231.806 621.624 227.896 617.442 224.01 613.33C209.457 597.928 196.363 580.337 186.663 561.462Q185.404 559.023 184.205 556.554Q183.006 554.084 181.869 551.587Q180.731 549.089 179.655 546.563Q178.58 544.038 177.566 541.487Q176.553 538.936 175.603 536.361Q174.653 533.786 173.766 531.188Q172.88 528.591 172.057 525.972Q171.235 523.353 170.477 520.715Q169.72 518.077 169.027 515.421Q168.335 512.765 167.708 510.093Q167.081 507.42 166.52 504.734Q165.959 502.047 165.464 499.347Q164.969 496.647 164.541 493.936Q164.113 491.224 163.752 488.504Q163.391 485.783 163.097 483.054Q162.802 480.325 162.576 477.589Q162.349 474.854 162.189 472.114Q162.03 469.373 161.938 466.63Q161.845 463.887 161.821 461.142Q161.796 458.397 161.84 455.653Q161.883 452.909 161.993 450.166Q162.104 447.423 162.282 444.684Q162.46 441.945 162.705 439.212Q162.951 436.478 163.263 433.751Q163.576 431.024 163.956 428.305Q164.335 425.587 164.782 422.879Q165.228 420.17 165.741 417.474Q166.254 414.777 166.833 412.094Q167.412 409.411 168.057 406.744Q168.702 404.076 169.413 401.424Q170.123 398.773 170.898 396.14Q171.674 393.507 172.514 390.894C197.022 314.87 255.032 260.028 322.223 220.333Q334.064 213.258 346.288 206.868Q358.512 200.478 371.08 194.793Q383.647 189.107 396.517 184.145Q409.388 179.184 422.519 174.961Q442.372 168.606 462.71 164.038C471.494 162.079 494.697 159.973 500.839 156.542C501.098 156.398 501.348 156.24 501.602 156.088Z"/>
</svg>
